<svg width="24" height="24" viewBox="0 0 24 24" fill="none" xmlns="http://www.w3.org/2000/svg">
<path d="M7.83331 1.64531L7.85393 1.64484L7.85581 1.66781L7.82956 1.66874L7.83331 1.64531Z" fill="#0BA25E"/>
<path d="M7.75314 1.79894C7.77142 1.77269 7.80704 1.72019 7.82532 1.69394L7.85814 1.68878C7.88251 1.98597 7.9697 2.27238 8.03532 2.56159C8.31751 3.81831 8.60251 5.07409 8.89923 6.32706C9.09376 7.18628 9.31079 8.04128 9.48892 8.90378C9.64361 9.43769 9.72657 9.98847 9.87611 10.5233C9.97267 11.0221 10.1241 11.5086 10.2052 12.0102C10.1724 12.065 10.1395 12.1203 10.1063 12.1752C10.0983 12.1878 10.0814 12.2141 10.0735 12.2272L10.0613 12.2483C10.0594 12.2521 10.0552 12.26 10.0528 12.2638C10.0345 12.2975 9.99798 12.3646 9.9797 12.3978C9.97642 12.4039 9.96939 12.4161 9.96564 12.4222L9.93236 12.4813C9.92814 12.4883 9.92017 12.5019 9.91642 12.5089L9.87751 12.5769C9.87564 12.5807 9.87142 12.5882 9.86907 12.5919L9.82079 12.6763C9.81658 12.6833 9.80814 12.6983 9.80392 12.7058C9.79923 12.7138 9.78986 12.7292 9.78517 12.7372L9.73783 12.8188C9.73408 12.8249 9.72657 12.838 9.72283 12.8441L9.69376 12.8933C9.68908 12.9017 9.67876 12.9191 9.67408 12.9275C9.65532 12.9599 9.61829 13.0246 9.59954 13.0574C9.59626 13.063 9.58923 13.0747 9.58595 13.0808L9.55642 13.13C9.55173 13.1389 9.54142 13.1558 9.53626 13.1647C9.51892 13.1952 9.48329 13.2557 9.46595 13.2861C9.46173 13.2932 9.45376 13.3077 9.44954 13.3147L9.41439 13.378C9.41111 13.3836 9.40454 13.3953 9.40126 13.401L9.36517 13.4642C9.36142 13.4708 9.35392 13.4839 9.35017 13.4905C9.33142 13.5214 9.29486 13.5838 9.27658 13.6152C9.27236 13.6222 9.26392 13.6367 9.2597 13.6442L9.22642 13.7042C9.22314 13.7099 9.21704 13.7207 9.21423 13.7263L9.17579 13.7928C9.17251 13.7989 9.16548 13.8107 9.1622 13.8163C9.14251 13.85 9.10361 13.9171 9.08392 13.9508C9.08064 13.9569 9.07314 13.9691 9.06939 13.9752L9.04126 14.0216C9.03658 14.03 9.02673 14.0464 9.02204 14.0549C9.00423 14.0858 8.96908 14.1472 8.95126 14.1782C8.94845 14.1833 8.94189 14.1946 8.93907 14.1997L8.90064 14.2682C8.89783 14.2733 8.8922 14.2832 8.88939 14.2883L8.85001 14.3572C8.84673 14.3624 8.84017 14.3736 8.83689 14.3788C8.81861 14.4097 8.78157 14.4707 8.76329 14.5016C8.75814 14.5096 8.74876 14.5264 8.74361 14.5349L8.71595 14.5864C8.7122 14.593 8.70517 14.6061 8.70189 14.6122L8.65361 14.6957C8.64986 14.7027 8.64142 14.7167 8.63767 14.7238C8.63345 14.7303 8.62595 14.7439 8.6222 14.7505C8.54298 14.8841 8.47126 15.0219 8.38361 15.1503C7.88439 15.9646 7.42501 16.8041 6.94173 17.6282C6.15704 18.9861 5.37329 20.3441 4.5886 21.7021C4.47095 21.9135 4.33689 22.116 4.23564 22.3367C4.23048 22.3442 4.22017 22.3592 4.21501 22.3667C4.02704 22.0958 3.88173 21.7967 3.7097 21.5155C2.92501 20.1566 2.13985 18.7982 1.35564 17.4388C0.919698 16.6742 0.465479 15.9191 0.0412598 15.1475C1.72126 12.2483 3.39376 9.34394 5.07048 6.44284C5.07189 6.44003 5.07517 6.43488 5.07657 6.43206L5.12251 6.35331C5.12439 6.35003 5.12814 6.34347 5.13048 6.34019L5.17689 6.26097C5.18111 6.25394 5.18954 6.23894 5.19423 6.23191C5.19892 6.22347 5.20829 6.20706 5.21298 6.19863L5.25939 6.11613C5.26267 6.1105 5.26923 6.09925 5.27251 6.09363L5.3072 6.03831C5.31329 6.02941 5.32548 6.01113 5.33157 6.00175C5.34845 5.97644 5.38267 5.92534 5.40001 5.90003C5.40189 5.89159 5.40517 5.87519 5.40704 5.86722L5.44782 5.78894C5.4497 5.78566 5.45345 5.77909 5.45532 5.77581L5.5022 5.69706C5.50689 5.68956 5.51626 5.67363 5.52095 5.66566C5.52611 5.65675 5.53642 5.63847 5.54204 5.62909L5.58142 5.56019C5.58564 5.55269 5.59407 5.53816 5.59829 5.53113L5.63111 5.47347C5.63486 5.46738 5.64236 5.45425 5.64611 5.44769C5.66439 5.41628 5.70095 5.35347 5.7197 5.32206C5.72345 5.3155 5.73095 5.30238 5.7347 5.29581L5.76892 5.23347C5.77173 5.22878 5.77736 5.21847 5.78017 5.21378L5.82517 5.13503C5.83079 5.12566 5.84251 5.10644 5.84861 5.09706L5.87907 5.05113C5.88564 5.04175 5.89829 5.02347 5.90486 5.01456C5.91048 5.00519 5.9222 4.98644 5.92829 4.97706L5.95361 4.92831C5.96204 4.91003 5.97939 4.87347 5.98782 4.85519L6.01361 4.81909C6.01829 4.81253 6.0272 4.79988 6.03189 4.79331C6.04923 4.77878 6.08439 4.74878 6.10173 4.73378L6.09845 4.67894C6.10126 4.67238 6.10782 4.65925 6.1111 4.65269L6.15095 4.57347C6.15423 4.56784 6.16079 4.55613 6.16407 4.5505L6.19923 4.49331C6.20579 4.48394 6.21845 4.46519 6.22501 4.45581C6.24095 4.42956 6.27329 4.378 6.28923 4.35222C6.29392 4.34284 6.30236 4.32456 6.30704 4.31519L6.33189 4.26128C6.33939 4.24722 6.35532 4.21863 6.36329 4.20409L6.39423 4.16003C6.40079 4.15113 6.41392 4.13331 6.42048 4.12441C6.42611 4.11503 6.43782 4.09628 6.44345 4.08691L6.46642 4.03863C6.47157 4.02784 6.48236 4.00581 6.48751 3.99503L6.52782 3.91722C6.53392 3.90784 6.54564 3.88816 6.55126 3.87831L6.5822 3.83238C6.58876 3.823 6.60189 3.80519 6.60845 3.79581C6.61454 3.78644 6.62626 3.76722 6.63189 3.75784L6.65579 3.70909C6.66282 3.6955 6.67642 3.66878 6.68298 3.65519L6.71486 3.60269C6.72048 3.59378 6.73173 3.57597 6.73782 3.56706C6.7547 3.54081 6.78892 3.48831 6.80626 3.46253C6.80814 3.45456 6.81236 3.43863 6.81423 3.43066L6.85501 3.35284C6.85642 3.34956 6.86017 3.34347 6.86204 3.34019L6.90892 3.26003C6.91361 3.25206 6.92251 3.23659 6.9272 3.22863C6.93189 3.22113 6.94079 3.20519 6.94548 3.19769L6.99236 3.11566C6.99423 3.11238 6.99798 3.10581 6.99986 3.10206L7.04392 3.02566C7.04626 3.02238 7.05048 3.01534 7.05236 3.01159L7.0997 2.93191C7.10392 2.92441 7.11236 2.91034 7.11657 2.90284C7.12126 2.89488 7.13064 2.87847 7.13532 2.87003L7.18032 2.79081C7.18314 2.78566 7.18876 2.77581 7.19157 2.77113L7.22954 2.70972C7.23564 2.70081 7.24782 2.68253 7.25345 2.67363C7.27079 2.64784 7.30454 2.59628 7.32189 2.5705C7.32329 2.56253 7.32704 2.54659 7.32892 2.53863L7.36876 2.46222C7.37204 2.45659 7.37907 2.44488 7.38236 2.43878L7.41798 2.383C7.42454 2.37409 7.43673 2.35581 7.44329 2.34644C7.4597 2.32019 7.49251 2.26816 7.50892 2.24191C7.51126 2.23441 7.51548 2.21941 7.51782 2.21191L7.55907 2.13456C7.56095 2.13081 7.5647 2.12425 7.56657 2.1205L7.61439 2.03988C7.61814 2.03284 7.62657 2.01878 7.63079 2.01175C7.63501 2.00378 7.64345 1.98878 7.64767 1.98128L7.69454 1.89784C7.69689 1.89456 7.70064 1.88753 7.70251 1.88425L7.74704 1.80878C7.74845 1.80644 7.75173 1.80128 7.75314 1.79894Z" fill="#0BA25E"/>
<path d="M7.85391 1.64468C9.37641 1.63765 10.8994 1.64374 12.4223 1.6414C13.6823 1.64609 14.9433 1.63156 16.2028 1.64843C16.2277 1.69624 16.253 1.74359 16.2797 1.79093C16.2834 1.79702 16.2905 1.81015 16.2942 1.81671C16.4161 2.02906 16.5398 2.24046 16.6603 2.45327C16.6627 2.45702 16.6664 2.46406 16.6688 2.46734C16.9022 2.86812 17.1347 3.26937 17.3639 3.67249C17.3658 3.67577 17.37 3.68234 17.3719 3.68609C17.4136 3.7578 17.4567 3.82952 17.4994 3.90171C17.5031 3.9078 17.5102 3.92046 17.5139 3.92702C17.5725 4.03015 17.6316 4.1328 17.6911 4.23546C17.6934 4.23874 17.6972 4.2453 17.6991 4.24905C17.7586 4.35124 17.8172 4.45437 17.8763 4.55749C17.88 4.56359 17.887 4.57577 17.8908 4.58187C17.9503 4.68218 18.008 4.78343 18.0652 4.88468C18.0689 4.89077 18.0759 4.90343 18.0797 4.90952C18.6394 5.87608 19.1977 6.84312 19.7555 7.81108C19.6917 8.09186 19.8459 8.37124 19.7602 8.65343C19.7081 9.42452 19.417 10.175 18.937 10.7806C18.7809 10.9498 18.9323 11.1847 18.9155 11.3853C18.7472 11.5892 18.5306 11.7415 18.3263 11.9061C18.3267 12.0598 18.3272 12.2136 18.3202 12.3678C18.1378 12.4883 17.9288 12.5581 17.7436 12.6744C17.7239 12.7367 17.7038 12.7995 17.6845 12.8628C17.5359 12.9331 17.377 12.9786 17.2284 13.0498C16.6402 12.8811 16.058 12.6931 15.4711 12.5192C14.925 12.3387 14.3658 12.1972 13.8253 11.9984L13.7944 11.9431C13.7916 11.9389 13.7869 11.9305 13.7845 11.9262L13.74 11.8508C13.7353 11.8428 13.7259 11.8269 13.7213 11.8189C13.717 11.8119 13.7095 11.7983 13.7053 11.7912C13.672 11.7322 13.6416 11.6717 13.6144 11.6098L13.6116 11.6037L13.6083 11.599C13.5877 11.5662 13.5459 11.5001 13.5248 11.4673C13.5225 11.4636 13.5178 11.4561 13.5155 11.4519L13.5019 11.4303C13.4939 11.4167 13.4775 11.39 13.4695 11.3764C13.4494 11.3422 13.4086 11.2737 13.3884 11.2395C13.3833 11.2311 13.3734 11.2137 13.3683 11.2053L13.3397 11.1565C13.3359 11.15 13.3284 11.1373 13.3247 11.1308L13.2792 11.0525C13.2773 11.0492 13.2731 11.0426 13.2713 11.0389L13.2234 10.9569C13.2192 10.9494 13.2108 10.9344 13.2066 10.9273C13.2019 10.9189 13.192 10.9016 13.1873 10.8931L13.1484 10.8247C13.1438 10.8167 13.1344 10.7998 13.1297 10.7919L13.0997 10.7389C13.0955 10.7319 13.0875 10.7178 13.0833 10.7108C13.065 10.677 13.028 10.61 13.0092 10.5762C13.0073 10.5725 13.0027 10.5645 13.0008 10.5608L12.9881 10.5387C12.9792 10.5256 12.9619 10.4994 12.953 10.4862C12.9066 10.4084 12.863 10.3287 12.8213 10.2486C12.8189 10.2448 12.8147 10.2369 12.8128 10.2331L12.8006 10.2116C12.7917 10.1989 12.7739 10.1736 12.765 10.1614C12.7444 10.1244 12.7031 10.0503 12.6825 10.0133C12.6802 10.0095 12.6755 10.0016 12.6736 9.99733L12.6609 9.97483C12.6516 9.95936 12.6333 9.92889 12.6239 9.91343L12.5836 9.84546C12.5798 9.83889 12.5719 9.82577 12.5677 9.81874C12.5498 9.7878 12.5138 9.72546 12.4955 9.69452C12.4913 9.68749 12.4833 9.67296 12.4791 9.66546C12.4472 9.61249 12.4167 9.55905 12.3867 9.50561C12.3844 9.50139 12.3792 9.49296 12.3769 9.48874L12.3323 9.41233C12.3277 9.40483 12.3188 9.38983 12.3145 9.38186C12.3103 9.37483 12.3023 9.36077 12.2981 9.35374L12.2508 9.27124C12.2484 9.26749 12.2442 9.25952 12.2419 9.25577L12.2034 9.18686C12.2002 9.18124 12.1941 9.17046 12.1908 9.16483C12.173 9.13343 12.1369 9.07108 12.1191 9.03968C12.1153 9.03311 12.1078 9.02046 12.1041 9.01436C12.075 8.96608 12.0459 8.91733 12.0178 8.86905C10.718 6.61343 9.41626 4.35921 8.1136 2.10499C8.03204 1.96437 7.95797 1.81812 7.85813 1.68874L7.85579 1.66765L7.85391 1.64468Z" fill="#FCCD48"/>
<path d="M7.82954 1.66897L7.85579 1.66803L7.85813 1.68912L7.82532 1.69428L7.82954 1.66897Z" fill="#089156"/>
<path d="M7.85809 1.68921C7.95794 1.81858 8.032 1.96483 8.11356 2.10546C9.41622 4.35968 10.7179 6.6139 12.0178 8.86952C11.4159 9.91765 10.8093 10.9634 10.2051 12.0106C10.124 11.5091 9.97263 11.0225 9.87606 10.5237C9.72653 9.9889 9.64356 9.43811 9.48887 8.90421C9.31075 8.04171 9.09372 7.18671 8.89919 6.32749C8.60247 5.07452 8.31747 3.81874 8.03528 2.56202C7.96966 2.2728 7.88247 1.9864 7.85809 1.68921Z" fill="#089156"/>
<path d="M7.74701 1.80892C7.7484 1.8066 7.75164 1.80151 7.75303 1.79919C7.75164 1.80151 7.7484 1.8066 7.74701 1.80892Z" fill="#089156"/>
<path d="M7.69452 1.89805C7.69686 1.89477 7.70061 1.88774 7.70249 1.88446C7.70061 1.88774 7.69686 1.89477 7.69452 1.89805Z" fill="#089156"/>
<path d="M7.63077 2.01198C7.63499 2.00401 7.64342 1.98901 7.64764 1.98151C7.64342 1.98901 7.63499 2.00401 7.63077 2.01198Z" fill="#089156"/>
<path d="M7.61438 2.04021C7.61813 2.03318 7.62656 2.01912 7.63078 2.01208C7.62656 2.01912 7.61813 2.03318 7.61438 2.04021Z" fill="#089156"/>
<path d="M7.55908 2.13491C7.56096 2.13116 7.56471 2.1246 7.56658 2.12085C7.56471 2.1246 7.56096 2.13116 7.55908 2.13491Z" fill="#089156"/>
<path d="M7.50891 2.24234C7.51125 2.23484 7.51547 2.21984 7.51782 2.21234C7.51547 2.21984 7.51125 2.23484 7.50891 2.24234Z" fill="#089156"/>
<path d="M7.44327 2.34678C7.45967 2.32053 7.49248 2.2685 7.50889 2.24225C7.49248 2.2685 7.45967 2.32053 7.44327 2.34678Z" fill="#089156"/>
<path d="M7.41797 2.3833C7.42453 2.3744 7.43672 2.35612 7.44328 2.34674C7.43672 2.35612 7.42453 2.3744 7.41797 2.3833Z" fill="#089156"/>
<path d="M7.36877 2.46265C7.37206 2.45702 7.37909 2.4453 7.38237 2.43921C7.37909 2.4453 7.37206 2.45702 7.36877 2.46265Z" fill="#089156"/>
<path d="M7.3219 2.57106C7.32331 2.56309 7.32706 2.54715 7.32893 2.53918C7.32706 2.54715 7.32331 2.56309 7.3219 2.57106Z" fill="#089156"/>
<path d="M7.25345 2.6738C7.27079 2.64802 7.30454 2.59646 7.32189 2.57068C7.30454 2.59646 7.27079 2.64802 7.25345 2.6738Z" fill="#089156"/>
<path d="M7.22952 2.70998C7.23562 2.70108 7.2478 2.6828 7.25343 2.67389C7.2478 2.6828 7.23562 2.70108 7.22952 2.70998Z" fill="#089156"/>
<path d="M7.18033 2.79123C7.18314 2.78608 7.18877 2.77623 7.19158 2.77155C7.18877 2.77623 7.18314 2.78608 7.18033 2.79123Z" fill="#089156"/>
<path d="M7.11658 2.90336C7.12126 2.89539 7.13064 2.87898 7.13533 2.87054C7.13064 2.87898 7.12126 2.89539 7.11658 2.90336Z" fill="#089156"/>
<path d="M7.09967 2.93208C7.10389 2.92458 7.11233 2.91052 7.11655 2.90302C7.11233 2.91052 7.10389 2.92458 7.09967 2.93208Z" fill="#089156"/>
<path d="M7.04388 3.02578C7.04623 3.0225 7.05045 3.01547 7.05232 3.01172C7.05045 3.01547 7.04623 3.0225 7.04388 3.02578Z" fill="#089156"/>
<path d="M6.99234 3.11583C6.99422 3.11255 6.99797 3.10598 6.99984 3.10223C6.99797 3.10598 6.99422 3.11255 6.99234 3.11583Z" fill="#089156"/>
<path d="M6.92719 3.22887C6.93187 3.22137 6.94078 3.20544 6.94547 3.19794C6.94078 3.20544 6.93187 3.22137 6.92719 3.22887Z" fill="#089156"/>
<path d="M6.90887 3.26029C6.91356 3.25232 6.92247 3.23685 6.92716 3.22888C6.92247 3.23685 6.91356 3.25232 6.90887 3.26029Z" fill="#089156"/>
<path d="M6.85501 3.35323C6.85642 3.34995 6.86017 3.34386 6.86204 3.34058C6.86017 3.34386 6.85642 3.34995 6.85501 3.35323Z" fill="#089156"/>
<path d="M6.80627 3.46297C6.80815 3.455 6.81237 3.43906 6.81424 3.43109C6.81237 3.43906 6.80815 3.455 6.80627 3.46297Z" fill="#089156"/>
<path d="M6.73782 3.56748C6.7547 3.54123 6.78892 3.48873 6.80626 3.46295C6.78892 3.48873 6.7547 3.54123 6.73782 3.56748Z" fill="#089156"/>
<path d="M6.71484 3.60307C6.72047 3.59416 6.73172 3.57635 6.73781 3.56744C6.73172 3.57635 6.72047 3.59416 6.71484 3.60307Z" fill="#089156"/>
<path d="M6.65579 3.70961C6.66282 3.69601 6.67642 3.66929 6.68298 3.6557C6.67642 3.66929 6.66282 3.69601 6.65579 3.70961Z" fill="#089156"/>
<path d="M6.60843 3.79615C6.61452 3.78677 6.62624 3.76755 6.63187 3.75818C6.62624 3.76755 6.61452 3.78677 6.60843 3.79615Z" fill="#089156"/>
<path d="M6.58218 3.83289C6.58875 3.82351 6.60187 3.8057 6.60843 3.79633C6.60187 3.8057 6.58875 3.82351 6.58218 3.83289Z" fill="#089156"/>
<path d="M6.52783 3.91757C6.53393 3.90819 6.54564 3.88851 6.55127 3.87866C6.54564 3.88851 6.53393 3.90819 6.52783 3.91757Z" fill="#089156"/>
<path d="M6.46643 4.03914C6.47159 4.02836 6.48237 4.00633 6.48752 3.99554C6.48237 4.00633 6.47159 4.02836 6.46643 4.03914Z" fill="#089156"/>
<path d="M6.42047 4.12484C6.4261 4.11547 6.43782 4.09672 6.44344 4.08734C6.43782 4.09672 6.4261 4.11547 6.42047 4.12484Z" fill="#089156"/>
<path d="M6.3942 4.16038C6.40076 4.15147 6.41388 4.13366 6.42045 4.12476C6.41388 4.13366 6.40076 4.15147 6.3942 4.16038Z" fill="#089156"/>
<path d="M6.33185 4.26171C6.33935 4.24765 6.35529 4.21906 6.36325 4.20453C6.35529 4.21906 6.33935 4.24765 6.33185 4.26171Z" fill="#089156"/>
<path d="M6.28922 4.35252C6.2939 4.34315 6.30234 4.32487 6.30703 4.31549C6.30234 4.32487 6.2939 4.34315 6.28922 4.35252Z" fill="#089156"/>
<path d="M6.22501 4.45619C6.24094 4.42994 6.27329 4.37838 6.28922 4.3526C6.27329 4.37838 6.24094 4.42994 6.22501 4.45619Z" fill="#089156"/>
<path d="M6.19922 4.49362C6.20578 4.48424 6.21844 4.46549 6.225 4.45612C6.21844 4.46549 6.20578 4.48424 6.19922 4.49362Z" fill="#089156"/>
<path d="M6.15094 4.57381C6.15422 4.56819 6.16078 4.55647 6.16406 4.55084C6.16078 4.55647 6.15422 4.56819 6.15094 4.57381Z" fill="#089156"/>
<path d="M6.09842 4.67933C6.10123 4.67276 6.10779 4.65964 6.11107 4.65308C6.10779 4.65964 6.10123 4.67276 6.09842 4.67933Z" fill="#089156"/>
<path d="M6.03189 4.79382C6.0483 4.76522 6.08158 4.70804 6.09845 4.67944L6.10174 4.73429C6.08439 4.74929 6.04923 4.77929 6.03189 4.79382Z" fill="#089156"/>
<path d="M6.01358 4.81948C6.01827 4.81292 6.02717 4.80026 6.03186 4.7937C6.02717 4.80026 6.01827 4.81292 6.01358 4.81948Z" fill="#089156"/>
<path d="M5.95361 4.92865C5.96205 4.91037 5.97939 4.87381 5.98783 4.85553C5.97939 4.87381 5.96205 4.91037 5.95361 4.92865Z" fill="#089156"/>
<path d="M5.90485 5.01473C5.91047 5.00536 5.92219 4.98661 5.92828 4.97723C5.92219 4.98661 5.91047 5.00536 5.90485 5.01473Z" fill="#089156"/>
<path d="M5.87906 5.05164C5.88562 5.04226 5.89828 5.02398 5.90484 5.01508C5.89828 5.02398 5.88562 5.04226 5.87906 5.05164Z" fill="#089156"/>
<path d="M5.82513 5.13538C5.83076 5.12601 5.84248 5.10679 5.84857 5.09741C5.84248 5.10679 5.83076 5.12601 5.82513 5.13538Z" fill="#089156"/>
<path d="M5.76892 5.23398C5.77173 5.22929 5.77736 5.21898 5.78017 5.21429C5.77736 5.21898 5.77173 5.22929 5.76892 5.23398Z" fill="#089156"/>
<path d="M5.71967 5.32258C5.72342 5.31601 5.73092 5.30289 5.73467 5.29633C5.73092 5.30289 5.72342 5.31601 5.71967 5.32258Z" fill="#089156"/>
<path d="M5.6311 5.47372C5.63485 5.46762 5.64235 5.4545 5.6461 5.44794C5.64235 5.4545 5.63485 5.46762 5.6311 5.47372Z" fill="#089156"/>
<path d="M5.58142 5.56031C5.58564 5.55281 5.59408 5.53828 5.5983 5.53125C5.59408 5.53828 5.58564 5.55281 5.58142 5.56031Z" fill="#089156"/>
<path d="M5.52094 5.66584C5.52609 5.65693 5.5364 5.63865 5.54203 5.62927C5.5364 5.63865 5.52609 5.65693 5.52094 5.66584Z" fill="#089156"/>
<path d="M5.5022 5.69748C5.50688 5.68998 5.51626 5.67405 5.52095 5.66608C5.51626 5.67405 5.50688 5.68998 5.5022 5.69748Z" fill="#089156"/>
<path d="M5.44781 5.78919C5.44969 5.78591 5.45344 5.77934 5.45531 5.77606C5.45344 5.77934 5.44969 5.78591 5.44781 5.78919Z" fill="#089156"/>
<path d="M5.40002 5.90037C5.4019 5.89193 5.40518 5.87552 5.40705 5.86755C5.40518 5.87552 5.4019 5.89193 5.40002 5.90037Z" fill="#089156"/>
<path d="M5.33157 6.00217C5.34845 5.97686 5.38267 5.92576 5.40001 5.90045C5.38267 5.92576 5.34845 5.97686 5.33157 6.00217Z" fill="#089156"/>
<path d="M5.30719 6.03858C5.31328 6.02967 5.32547 6.01139 5.33156 6.00201C5.32547 6.01139 5.31328 6.02967 5.30719 6.03858Z" fill="#089156"/>
<path d="M5.2594 6.11625C5.26268 6.11062 5.26924 6.09938 5.27252 6.09375C5.26924 6.09938 5.26268 6.11062 5.2594 6.11625Z" fill="#089156"/>
<path d="M5.19421 6.23225C5.1989 6.22382 5.20828 6.20741 5.21296 6.19897C5.20828 6.20741 5.1989 6.22382 5.19421 6.23225Z" fill="#089156"/>
<path d="M5.17688 6.26118C5.1811 6.25415 5.18954 6.23915 5.19422 6.23212C5.18954 6.23915 5.1811 6.25415 5.17688 6.26118Z" fill="#089156"/>
<path d="M5.1225 6.3537C5.12437 6.35042 5.12812 6.34386 5.13047 6.34058C5.12812 6.34386 5.12437 6.35042 5.1225 6.3537Z" fill="#089156"/>
<path d="M5.07047 6.44296C5.07185 6.44018 5.07509 6.43509 5.07648 6.43231C5.07509 6.43509 5.07185 6.44018 5.07047 6.44296Z" fill="#089156"/>
<path d="M10.0734 12.2276C10.0814 12.2144 10.0983 12.1882 10.1062 12.1755C10.0983 12.1882 10.0814 12.2144 10.0734 12.2276Z" fill="#089156"/>
<path d="M10.0528 12.2643C10.0551 12.2605 10.0594 12.2525 10.0612 12.2488C10.0594 12.2525 10.0551 12.2605 10.0528 12.2643Z" fill="#089156"/>
<path d="M9.96561 12.4226C9.96936 12.4165 9.97639 12.4043 9.97967 12.3982C9.97639 12.4043 9.96936 12.4165 9.96561 12.4226Z" fill="#089156"/>
<path d="M9.91641 12.5092C9.92016 12.5021 9.92813 12.4885 9.93235 12.4815C9.92813 12.4885 9.92016 12.5021 9.91641 12.5092Z" fill="#089156"/>
<path d="M9.86905 12.5922C9.87139 12.5885 9.87561 12.581 9.87749 12.5772C9.87561 12.581 9.87139 12.5885 9.86905 12.5922Z" fill="#089156"/>
<path d="M9.80389 12.706C9.80811 12.6985 9.81655 12.6835 9.82077 12.6765C9.81655 12.6835 9.80811 12.6985 9.80389 12.706Z" fill="#089156"/>
<path d="M9.78516 12.7375C9.78984 12.7296 9.79922 12.7141 9.80391 12.7061C9.79922 12.7141 9.78984 12.7296 9.78516 12.7375Z" fill="#089156"/>
<path d="M9.72281 12.8444C9.72656 12.8383 9.73406 12.8251 9.73781 12.819C9.73406 12.8251 9.72656 12.8383 9.72281 12.8444Z" fill="#089156"/>
<path d="M9.67407 12.9278C9.67876 12.9194 9.68907 12.9021 9.69376 12.8936C9.68907 12.9021 9.67876 12.9194 9.67407 12.9278Z" fill="#089156"/>
<path d="M9.58594 13.0811C9.58922 13.075 9.59625 13.0633 9.59953 13.0577C9.59625 13.0633 9.58922 13.075 9.58594 13.0811Z" fill="#089156"/>
<path d="M9.53625 13.1649C9.54141 13.156 9.55172 13.1392 9.55641 13.1302C9.55172 13.1392 9.54141 13.156 9.53625 13.1649Z" fill="#089156"/>
<path d="M9.44952 13.3152C9.45374 13.3081 9.46171 13.2936 9.46593 13.2866C9.46171 13.2936 9.45374 13.3081 9.44952 13.3152Z" fill="#089156"/>
<path d="M9.40125 13.4013C9.40453 13.3956 9.41109 13.3839 9.41437 13.3783C9.41109 13.3839 9.40453 13.3956 9.40125 13.4013Z" fill="#089156"/>
<path d="M9.35016 13.4909C9.35391 13.4843 9.36141 13.4712 9.36516 13.4646C9.36141 13.4712 9.35391 13.4843 9.35016 13.4909Z" fill="#089156"/>
<path d="M9.25967 13.6447C9.26389 13.6372 9.27233 13.6227 9.27655 13.6157C9.27233 13.6227 9.26389 13.6372 9.25967 13.6447Z" fill="#089156"/>
<path d="M9.21423 13.7265C9.21705 13.7209 9.22314 13.7101 9.22642 13.7045C9.22314 13.7101 9.21705 13.7209 9.21423 13.7265Z" fill="#089156"/>
<path d="M9.16217 13.8164C9.16545 13.8108 9.17248 13.7991 9.17576 13.793C9.17248 13.7991 9.16545 13.8108 9.16217 13.8164Z" fill="#089156"/>
<path d="M9.06937 13.9756C9.07312 13.9695 9.08062 13.9573 9.0839 13.9512C9.08062 13.9573 9.07312 13.9695 9.06937 13.9756Z" fill="#089156"/>
<path d="M9.02203 14.0551C9.02672 14.0467 9.03656 14.0303 9.04125 14.0219C9.03656 14.0303 9.02672 14.0467 9.02203 14.0551Z" fill="#089156"/>
<path d="M8.93909 14.2C8.9419 14.1949 8.94846 14.1836 8.95127 14.1785C8.94846 14.1836 8.9419 14.1949 8.93909 14.2Z" fill="#089156"/>
<path d="M8.88934 14.2888C8.89216 14.2836 8.89778 14.2738 8.90059 14.2686C8.89778 14.2738 8.89216 14.2836 8.88934 14.2888Z" fill="#089156"/>
<path d="M8.83685 14.379C8.84013 14.3739 8.8467 14.3626 8.84998 14.3575C8.8467 14.3626 8.84013 14.3739 8.83685 14.379Z" fill="#089156"/>
<path d="M8.74359 14.5353C8.74875 14.5269 8.75812 14.51 8.76328 14.502C8.75812 14.51 8.74875 14.5269 8.74359 14.5353Z" fill="#089156"/>
<path d="M8.70184 14.6124C8.70512 14.6063 8.71216 14.5932 8.71591 14.5866C8.71216 14.5932 8.70512 14.6063 8.70184 14.6124Z" fill="#089156"/>
<path d="M8.63763 14.7242C8.64138 14.7171 8.64982 14.7031 8.65357 14.696C8.64982 14.7031 8.64138 14.7171 8.63763 14.7242Z" fill="#089156"/>
<path d="M8.62219 14.7507C8.62594 14.7442 8.63344 14.7306 8.63766 14.724C8.63344 14.7306 8.62594 14.7442 8.62219 14.7507Z" fill="#089156"/>
<path d="M16.2797 1.79102C16.2834 1.79711 16.2905 1.81023 16.2942 1.8168C16.2905 1.81023 16.2834 1.79711 16.2797 1.79102Z" fill="#10985B"/>
<path d="M16.6603 2.45349C16.6627 2.45724 16.6664 2.46427 16.6687 2.46755C16.6664 2.46427 16.6627 2.45724 16.6603 2.45349Z" fill="#10985B"/>
<path d="M17.3639 3.67249C17.3658 3.67577 17.37 3.68233 17.3719 3.68608C17.37 3.68233 17.3658 3.67577 17.3639 3.67249Z" fill="#10985B"/>
<path d="M17.4994 3.90167C17.5031 3.90777 17.5102 3.92042 17.5139 3.92699C17.5102 3.92042 17.5031 3.90777 17.4994 3.90167Z" fill="#10985B"/>
<path d="M17.6911 4.23572C17.6934 4.239 17.6972 4.24556 17.6991 4.24931C17.6972 4.24556 17.6934 4.239 17.6911 4.23572Z" fill="#10985B"/>
<path d="M17.8763 4.55762C17.88 4.56371 17.887 4.5759 17.8908 4.58199C17.887 4.5759 17.88 4.56371 17.8763 4.55762Z" fill="#10985B"/>
<path d="M18.0652 4.88477C18.0689 4.89086 18.076 4.90352 18.0797 4.90961C18.076 4.90352 18.0689 4.89086 18.0652 4.88477Z" fill="#10985B"/>
<path d="M19.7555 7.81116C20.5706 9.2235 21.3909 10.6335 22.1995 12.0501C22.2033 12.0562 22.2108 12.0693 22.2145 12.0754C22.2333 12.1063 22.2708 12.1677 22.289 12.1982C22.2928 12.2043 22.3003 12.2169 22.304 12.223L22.3415 12.2873C22.3439 12.2915 22.3486 12.3004 22.3514 12.3046L22.3983 12.3862C22.403 12.3941 22.4119 12.4105 22.4165 12.4185C22.4208 12.4255 22.4292 12.4401 22.4334 12.4476L22.4794 12.5273C22.4812 12.5305 22.485 12.5371 22.4869 12.5404L22.5328 12.6191C22.5347 12.6224 22.5384 12.6285 22.5403 12.6318L22.5862 12.7115C22.5909 12.7194 22.5998 12.7349 22.6045 12.7429C22.6087 12.7508 22.6176 12.7663 22.6219 12.7738L22.6692 12.8573C22.6758 12.8737 22.6889 12.9055 22.6955 12.9215L22.7086 12.9472L22.7147 12.9608L22.725 12.9744L22.7526 13.0162C22.7625 13.0316 22.7817 13.0626 22.7915 13.078C22.7972 13.0874 22.8094 13.1062 22.815 13.1155L22.8459 13.1648C22.8553 13.1858 22.874 13.2285 22.8834 13.2496L22.8975 13.2749L22.9026 13.2848L22.9069 13.2908C22.9275 13.3213 22.9683 13.3827 22.9889 13.4132C22.994 13.4216 23.0044 13.4385 23.01 13.4469L23.0381 13.4938C23.0423 13.5013 23.0508 13.5158 23.055 13.5229L23.1023 13.6058C23.1065 13.6133 23.115 13.6283 23.1192 13.6358C23.1234 13.6433 23.1319 13.6579 23.1361 13.6654L23.183 13.7455C23.1848 13.7493 23.189 13.7563 23.1914 13.7596L23.234 13.8346C23.2369 13.8393 23.2425 13.8491 23.2453 13.8538L23.2884 13.9293C23.2936 13.9377 23.3034 13.9551 23.3086 13.9635C23.3128 13.971 23.3217 13.986 23.3259 13.9935C23.3606 14.0512 23.3939 14.1098 23.4248 14.1698C23.4295 14.1796 23.4389 14.1993 23.4431 14.2091L23.4647 14.2579C23.4703 14.2673 23.4815 14.2865 23.4867 14.2958C23.4937 14.3052 23.5073 14.323 23.5144 14.3319L23.5467 14.3779C23.5523 14.3868 23.5636 14.4046 23.5697 14.414L23.617 14.496C23.6212 14.5035 23.6297 14.5185 23.6339 14.526C23.6381 14.5335 23.6465 14.548 23.6512 14.5555L23.6981 14.6362C23.7 14.6399 23.7037 14.6465 23.7056 14.6497L23.7501 14.7276C23.752 14.7308 23.7558 14.7369 23.7576 14.7402L23.8031 14.8194C23.8078 14.8274 23.8172 14.8433 23.8219 14.8518C23.8265 14.8597 23.8359 14.8757 23.8401 14.8837L23.887 14.9643C23.8889 14.9676 23.8922 14.9741 23.894 14.9774L23.9437 15.0702L23.9433 15.1124C22.7705 14.7754 21.6164 14.3755 20.4403 14.0507C19.373 13.7062 18.2958 13.3926 17.2284 13.0499C17.377 12.9787 17.5359 12.9332 17.6845 12.8629C17.7037 12.7996 17.7239 12.7368 17.7436 12.6744C17.9287 12.5582 18.1378 12.4883 18.3201 12.3679C18.3272 12.2137 18.3267 12.0599 18.3262 11.9062C18.5306 11.7416 18.7472 11.5893 18.9155 11.3854C18.9323 11.1848 18.7809 10.9499 18.937 10.7807C19.417 10.1751 19.7081 9.42459 19.7601 8.6535C19.8459 8.37131 19.6917 8.09194 19.7555 7.81116Z" fill="#F9C941"/>
<path d="M23.9433 15.1122L23.9676 15.1132L23.9812 15.1488L23.9536 15.1507L23.9433 15.1122Z" fill="#F9C941"/>
<path d="M12.104 9.01465C12.1078 9.02074 12.1153 9.0334 12.119 9.03996C12.1153 9.0334 12.1078 9.02074 12.104 9.01465Z" fill="#E3B73A"/>
<path d="M12.1907 9.16504C12.194 9.17066 12.2001 9.18145 12.2034 9.18707C12.2001 9.18145 12.194 9.17066 12.1907 9.16504Z" fill="#E3B73A"/>
<path d="M12.2419 9.25623C12.2442 9.25998 12.2484 9.26794 12.2508 9.27169C12.2484 9.26794 12.2442 9.25998 12.2419 9.25623Z" fill="#E3B73A"/>
<path d="M12.2981 9.35419C12.3023 9.36122 12.3103 9.37528 12.3145 9.38231C12.3103 9.37528 12.3023 9.36122 12.2981 9.35419Z" fill="#E3B73A"/>
<path d="M12.3145 9.38214C12.3187 9.39011 12.3276 9.40511 12.3323 9.41261C12.3276 9.40511 12.3187 9.39011 12.3145 9.38214Z" fill="#E3B73A"/>
<path d="M12.3769 9.48889C12.3792 9.49311 12.3844 9.50155 12.3867 9.50577C12.3844 9.50155 12.3792 9.49311 12.3769 9.48889Z" fill="#E3B73A"/>
<path d="M12.479 9.66565C12.4833 9.67315 12.4912 9.68768 12.4954 9.69471C12.4912 9.68768 12.4833 9.67315 12.479 9.66565Z" fill="#E3B73A"/>
<path d="M12.5676 9.81903C12.5718 9.82606 12.5798 9.83919 12.5836 9.84575C12.5798 9.83919 12.5718 9.82606 12.5676 9.81903Z" fill="#E3B73A"/>
<path d="M12.6239 9.91376C12.6333 9.92923 12.6516 9.95969 12.6609 9.97516C12.6516 9.95969 12.6333 9.92923 12.6239 9.91376Z" fill="#E3B73A"/>
<path d="M12.6736 9.99774C12.6755 10.002 12.6801 10.0099 12.6825 10.0137C12.6801 10.0099 12.6755 10.002 12.6736 9.99774Z" fill="#E3B73A"/>
<path d="M12.765 10.1618C12.7739 10.174 12.7917 10.1993 12.8006 10.212C12.7917 10.1993 12.7739 10.174 12.765 10.1618Z" fill="#E3B73A"/>
<path d="M12.8128 10.2334C12.8146 10.2371 12.8189 10.2451 12.8212 10.2489C12.8189 10.2451 12.8146 10.2371 12.8128 10.2334Z" fill="#E3B73A"/>
<path d="M12.9529 10.4867C12.9618 10.4998 12.9792 10.5261 12.9881 10.5392C12.9792 10.5261 12.9618 10.4998 12.9529 10.4867Z" fill="#E3B73A"/>
<path d="M13.0008 10.5612C13.0026 10.565 13.0073 10.5729 13.0092 10.5767C13.0073 10.5729 13.0026 10.565 13.0008 10.5612Z" fill="#E3B73A"/>
<path d="M13.0833 10.7109C13.0875 10.718 13.0954 10.732 13.0997 10.7391C13.0954 10.732 13.0875 10.718 13.0833 10.7109Z" fill="#E3B73A"/>
<path d="M13.1297 10.7919C13.1344 10.7999 13.1437 10.8168 13.1484 10.8247C13.1437 10.8168 13.1344 10.7999 13.1297 10.7919Z" fill="#E3B73A"/>
<path d="M13.1873 10.8936C13.192 10.9021 13.2018 10.9194 13.2065 10.9278C13.2018 10.9194 13.192 10.9021 13.1873 10.8936Z" fill="#E3B73A"/>
<path d="M13.2065 10.9277C13.2108 10.9348 13.2192 10.9498 13.2234 10.9573C13.2192 10.9498 13.2108 10.9348 13.2065 10.9277Z" fill="#E3B73A"/>
<path d="M13.2712 11.0391C13.2731 11.0428 13.2773 11.0494 13.2792 11.0527C13.2773 11.0494 13.2731 11.0428 13.2712 11.0391Z" fill="#E3B73A"/>
<path d="M13.3246 11.1312C13.3284 11.1378 13.3359 11.1504 13.3396 11.157C13.3359 11.1504 13.3284 11.1378 13.3246 11.1312Z" fill="#E3B73A"/>
<path d="M13.3682 11.2057C13.3734 11.2142 13.3832 11.2315 13.3884 11.24C13.3832 11.2315 13.3734 11.2142 13.3682 11.2057Z" fill="#E3B73A"/>
<path d="M13.4695 11.3766C13.4775 11.3902 13.4939 11.4169 13.5019 11.4305C13.4939 11.4169 13.4775 11.3902 13.4695 11.3766Z" fill="#E3B73A"/>
<path d="M13.5154 11.4521C13.5178 11.4564 13.5225 11.4639 13.5248 11.4676C13.5225 11.4639 13.5178 11.4564 13.5154 11.4521Z" fill="#E3B73A"/>
<path d="M13.6083 11.5992L13.6115 11.6039L13.6143 11.6099C13.6129 11.6071 13.6097 11.602 13.6083 11.5992Z" fill="#E3B73A"/>
<path d="M13.7053 11.7917C13.7095 11.7987 13.717 11.8123 13.7212 11.8193C13.717 11.8123 13.7095 11.7987 13.7053 11.7917Z" fill="#E3B73A"/>
<path d="M13.7212 11.8194C13.7259 11.8274 13.7353 11.8433 13.74 11.8513C13.7353 11.8433 13.7259 11.8274 13.7212 11.8194Z" fill="#E3B73A"/>
<path d="M13.7845 11.9264C13.7868 11.9306 13.7915 11.939 13.7943 11.9433C13.7915 11.939 13.7868 11.9306 13.7845 11.9264Z" fill="#E3B73A"/>
<path d="M13.8253 11.9987C14.3657 12.1975 14.9249 12.339 15.471 12.5195C16.0579 12.6934 16.6401 12.8814 17.2284 13.0501C18.2957 13.3928 19.3729 13.7064 20.4403 14.0509C20.4243 14.2792 20.4693 14.5131 20.4126 14.7372C20.369 14.9551 20.1084 14.9893 20.001 15.1632C18.5587 15.1637 17.1168 15.1679 15.6749 15.1618L15.644 15.1595C15.0482 14.1001 14.4285 13.0539 13.8253 11.9987Z" fill="#E3B73A"/>
<path d="M22.1996 12.0501C22.2033 12.0562 22.2108 12.0693 22.2146 12.0754C22.2108 12.0693 22.2033 12.0562 22.1996 12.0501Z" fill="#E8B835"/>
<path d="M22.2891 12.1982C22.2928 12.2043 22.3003 12.217 22.3041 12.2231C22.3003 12.217 22.2928 12.2043 22.2891 12.1982Z" fill="#E8B835"/>
<path d="M22.3416 12.2874C22.3439 12.2916 22.3486 12.3005 22.3514 12.3048C22.3486 12.3005 22.3439 12.2916 22.3416 12.2874Z" fill="#E8B835"/>
<path d="M22.3983 12.386C22.4029 12.394 22.4119 12.4104 22.4165 12.4183C22.4119 12.4104 22.4029 12.394 22.3983 12.386Z" fill="#E8B835"/>
<path d="M22.4166 12.4186C22.4208 12.4256 22.4292 12.4401 22.4335 12.4476C22.4292 12.4401 22.4208 12.4256 22.4166 12.4186Z" fill="#E8B835"/>
<path d="M22.4794 12.5273C22.4812 12.5306 22.485 12.5372 22.4869 12.5405C22.485 12.5372 22.4812 12.5306 22.4794 12.5273Z" fill="#E8B835"/>
<path d="M22.5328 12.6191C22.5347 12.6224 22.5384 12.6285 22.5403 12.6317C22.5384 12.6285 22.5347 12.6224 22.5328 12.6191Z" fill="#E8B835"/>
<path d="M22.5863 12.7115C22.591 12.7195 22.5999 12.735 22.6046 12.743C22.5999 12.735 22.591 12.7195 22.5863 12.7115Z" fill="#E8B835"/>
<path d="M22.6045 12.7428C22.6087 12.7508 22.6176 12.7662 22.6219 12.7737C22.6176 12.7662 22.6087 12.7508 22.6045 12.7428Z" fill="#E8B835"/>
<path d="M22.6692 12.8574C22.6758 12.8738 22.6889 12.9057 22.6955 12.9216C22.6889 12.9057 22.6758 12.8738 22.6692 12.8574Z" fill="#E8B835"/>
<path d="M22.7086 12.9472C22.7128 12.9542 22.7208 12.9678 22.725 12.9744L22.7147 12.9608L22.7086 12.9472Z" fill="#E8B835"/>
<path d="M22.7527 13.0162C22.7625 13.0317 22.7817 13.0626 22.7916 13.0781C22.7817 13.0626 22.7625 13.0317 22.7527 13.0162Z" fill="#E8B835"/>
<path d="M22.7916 13.0781C22.7972 13.0875 22.8094 13.1062 22.815 13.1156C22.8094 13.1062 22.7972 13.0875 22.7916 13.0781Z" fill="#E8B835"/>
<path d="M22.8459 13.1647C22.8553 13.1858 22.8741 13.2284 22.8834 13.2495C22.8741 13.2284 22.8553 13.1858 22.8459 13.1647Z" fill="#E8B835"/>
<path d="M22.8975 13.2751C22.8998 13.2793 22.9045 13.2873 22.9069 13.291L22.9026 13.2849L22.8975 13.2751Z" fill="#E8B835"/>
<path d="M22.989 13.4135C22.9941 13.4219 23.0044 13.4388 23.01 13.4472C23.0044 13.4388 22.9941 13.4219 22.989 13.4135Z" fill="#E8B835"/>
<path d="M23.0381 13.4938C23.0423 13.5013 23.0508 13.5158 23.055 13.5228C23.0508 13.5158 23.0423 13.5013 23.0381 13.4938Z" fill="#E8B835"/>
<path d="M23.1023 13.6058C23.1065 13.6133 23.115 13.6283 23.1192 13.6358C23.115 13.6283 23.1065 13.6133 23.1023 13.6058Z" fill="#E8B835"/>
<path d="M23.1192 13.6361C23.1235 13.6436 23.1319 13.6581 23.1361 13.6656C23.1319 13.6581 23.1235 13.6436 23.1192 13.6361Z" fill="#E8B835"/>
<path d="M23.183 13.7454C23.1849 13.7491 23.1891 13.7561 23.1914 13.7594C23.1891 13.7561 23.1849 13.7491 23.183 13.7454Z" fill="#E8B835"/>
<path d="M23.234 13.8346C23.2369 13.8393 23.2425 13.8491 23.2453 13.8538C23.2425 13.8491 23.2369 13.8393 23.234 13.8346Z" fill="#E8B835"/>
<path d="M23.2885 13.9293C23.2936 13.9378 23.3035 13.9551 23.3086 13.9635C23.3035 13.9551 23.2936 13.9378 23.2885 13.9293Z" fill="#E8B835"/>
<path d="M23.3086 13.9635C23.3128 13.971 23.3217 13.986 23.3259 13.9935C23.3217 13.986 23.3128 13.971 23.3086 13.9635Z" fill="#E8B835"/>
<path d="M20.4403 14.0508C21.6164 14.3756 22.7705 14.7755 23.9433 15.1125L23.9536 15.1509C22.6369 15.1809 21.3183 15.1561 20.0011 15.1631C20.1084 14.9892 20.3691 14.955 20.4127 14.737C20.4694 14.513 20.4244 14.2791 20.4403 14.0508Z" fill="#E8B835"/>
<path d="M23.4248 14.1699C23.4295 14.1798 23.4389 14.1995 23.4431 14.2093C23.4389 14.1995 23.4295 14.1798 23.4248 14.1699Z" fill="#E8B835"/>
<path d="M23.4647 14.2578C23.4703 14.2671 23.4815 14.2863 23.4867 14.2957C23.4815 14.2863 23.4703 14.2671 23.4647 14.2578Z" fill="#E8B835"/>
<path d="M23.4867 14.2959C23.4938 14.3053 23.5074 14.3231 23.5144 14.332C23.5074 14.3231 23.4938 14.3053 23.4867 14.2959Z" fill="#E8B835"/>
<path d="M23.5467 14.3779C23.5523 14.3868 23.5636 14.4046 23.5697 14.414C23.5636 14.4046 23.5523 14.3868 23.5467 14.3779Z" fill="#E8B835"/>
<path d="M23.617 14.4961C23.6212 14.5036 23.6297 14.5186 23.6339 14.5261C23.6297 14.5186 23.6212 14.5036 23.617 14.4961Z" fill="#E8B835"/>
<path d="M23.6339 14.526C23.6381 14.5335 23.6466 14.548 23.6513 14.5555C23.6466 14.548 23.6381 14.5335 23.6339 14.526Z" fill="#E8B835"/>
<path d="M23.6981 14.636C23.7 14.6397 23.7037 14.6463 23.7056 14.6496C23.7037 14.6463 23.7 14.6397 23.6981 14.636Z" fill="#E8B835"/>
<path d="M23.7502 14.7275C23.7521 14.7308 23.7558 14.7369 23.7577 14.7401C23.7558 14.7369 23.7521 14.7308 23.7502 14.7275Z" fill="#E8B835"/>
<path d="M23.8031 14.8197C23.8078 14.8277 23.8172 14.8436 23.8219 14.852C23.8172 14.8436 23.8078 14.8277 23.8031 14.8197Z" fill="#E8B835"/>
<path d="M23.8219 14.8519C23.8266 14.8598 23.8359 14.8758 23.8401 14.8837C23.8359 14.8758 23.8266 14.8598 23.8219 14.8519Z" fill="#E8B835"/>
<path d="M23.8871 14.9641C23.8889 14.9674 23.8922 14.974 23.8941 14.9772C23.8922 14.974 23.8889 14.9674 23.8871 14.9641Z" fill="#E8B835"/>
<path d="M23.9437 15.0703C23.9498 15.0811 23.9615 15.1027 23.9676 15.1134L23.9433 15.1125L23.9437 15.0703Z" fill="#E8B835"/>
<path d="M6.94172 17.6282C7.425 16.8041 7.88438 15.9646 8.3836 15.1504C10.8038 15.1593 13.2244 15.1368 15.6441 15.1593L15.675 15.1616C14.4511 15.201 13.2239 15.1513 12 15.1823C11.7666 15.3327 11.6109 15.5765 11.3873 15.7405C11.1797 15.892 11.0269 16.1029 10.8286 16.2646C10.5506 16.4695 10.3439 16.7535 10.0617 16.9541C9.73547 17.2996 9.35906 17.5907 9.03 17.9343C8.78344 18.1237 8.57719 18.3576 8.3475 18.5662C8.09485 18.7495 7.90125 18.9979 7.665 19.2004C7.65891 19.2055 7.64719 19.2159 7.64109 19.2215C7.62844 19.2313 7.6036 19.252 7.59094 19.2618C7.58485 19.267 7.5736 19.2763 7.5675 19.2815C7.38141 19.4254 7.23891 19.6152 7.0561 19.7629C7.05 19.768 7.03828 19.7779 7.03266 19.7826C7.02656 19.7877 7.01485 19.7976 7.00875 19.8023C6.74203 20.0212 6.52828 20.2982 6.24844 20.5021C5.96672 20.7815 5.64891 21.0215 5.38125 21.3159C4.98563 21.6412 4.64344 22.0251 4.23563 22.3368C4.33688 22.116 4.47094 21.9135 4.58859 21.7021C5.37328 20.3441 6.15703 18.9862 6.94172 17.6282Z" fill="#296AD9"/>
<path d="M4.215 22.3669C4.22015 22.3594 4.23047 22.3444 4.23562 22.3369L4.23422 22.3674L4.215 22.3669Z" fill="#296AD9"/>
<path d="M15.675 15.1618C17.1169 15.1679 18.5588 15.1636 20.0011 15.1632C21.3183 15.1561 22.6369 15.181 23.9536 15.151L23.9813 15.1491L24 15.1543V15.158C22.6097 17.5613 21.2236 19.9674 19.8333 22.3711C14.6334 22.3697 9.4336 22.3758 4.23422 22.3674L4.23563 22.3369C4.64344 22.0252 4.98563 21.6413 5.38125 21.316C5.64891 21.0216 5.96672 20.7816 6.24844 20.5022C6.52829 20.2983 6.74204 20.0213 7.00875 19.8024C7.01485 19.7977 7.02657 19.7879 7.03266 19.7827C7.03829 19.778 7.05 19.7682 7.0561 19.763C7.23891 19.6154 7.38141 19.4255 7.5675 19.2816C7.5736 19.2765 7.58485 19.2671 7.59094 19.2619C7.6036 19.2521 7.62844 19.2315 7.6411 19.2216C7.64719 19.216 7.65891 19.2057 7.665 19.2005C7.90125 18.998 8.09485 18.7496 8.3475 18.5663C8.57719 18.3577 8.78344 18.1238 9.03 17.9344C9.35907 17.5908 9.73547 17.2997 10.0617 16.9543C10.3439 16.7536 10.5506 16.4696 10.8286 16.2647C11.0269 16.103 11.1797 15.8921 11.3873 15.7407C11.6109 15.5766 11.7666 15.3329 12 15.1824C13.2239 15.1515 14.4511 15.2011 15.675 15.1618Z" fill="#2A71E9"/>
<path d="M7.64111 19.2217C7.64721 19.216 7.65893 19.2057 7.66502 19.2006C7.65893 19.2057 7.64721 19.216 7.64111 19.2217Z" fill="#286EE6"/>
<path d="M7.59094 19.2621C7.6036 19.2522 7.62844 19.2316 7.6411 19.2217C7.62844 19.2316 7.6036 19.2522 7.59094 19.2621Z" fill="#286EE6"/>
<path d="M7.5675 19.2818C7.5736 19.2766 7.58485 19.2672 7.59094 19.2621C7.58485 19.2672 7.5736 19.2766 7.5675 19.2818Z" fill="#286EE6"/>
<path d="M7.03268 19.7827C7.03831 19.7781 7.05003 19.7682 7.05612 19.7631C7.05003 19.7682 7.03831 19.7781 7.03268 19.7827Z" fill="#286EE6"/>
<path d="M7.00876 19.8022C7.01485 19.7975 7.02657 19.7877 7.03266 19.7825C7.02657 19.7877 7.01485 19.7975 7.00876 19.8022Z" fill="#286EE6"/>
</svg>
