<svg width="24" height="24" viewBox="0 0 24 24" fill="none" xmlns="http://www.w3.org/2000/svg">
<path fill-rule="evenodd" clip-rule="evenodd" d="M14.7682 0.0547323L1.44833 1.03489C0.374294 1.12783 0 1.828 0 2.66739V17.2253C0 17.8794 0.233311 18.4384 0.794371 19.1856L3.9255 23.245C4.43981 23.8987 4.90721 24.0386 5.88929 23.9918L21.3575 23.0584C22.6658 22.9655 23.04 22.3585 23.04 21.332V4.95397C23.04 4.42337 22.8299 4.2701 22.2105 3.81827C22.1765 3.79341 22.1412 3.76765 22.1046 3.74087L17.8527 0.754705C16.8247 0.00844994 16.4038 -0.0854536 14.7682 0.0547323ZM6.24002 4.68535C4.97714 4.77057 4.69018 4.78993 3.973 4.20774L2.14923 2.76131C1.96322 2.57427 2.05652 2.34095 2.52352 2.29468L15.329 1.36137C16.4036 1.26785 16.9643 1.64175 17.3852 1.96821L19.5815 3.55482C19.675 3.60128 19.9083 3.8809 19.6278 3.8809L6.40305 4.6744L6.24002 4.68535ZM4.76699 21.1918V7.28742C4.76699 6.68096 4.95394 6.40079 5.51443 6.35373L20.7026 5.46748C21.2177 5.42082 21.451 5.74767 21.451 6.35373V20.1648C21.451 20.7718 21.3573 21.2858 20.5158 21.332L5.98181 22.1724C5.1407 22.2186 4.76699 21.9391 4.76699 21.1918ZM19.1149 8.0333C19.2081 8.45368 19.1149 8.87365 18.6935 8.92089L17.9931 9.06031V19.3254C17.3852 19.652 16.8245 19.8386 16.3573 19.8386C15.6093 19.8386 15.4219 19.6052 14.8616 18.9056L10.281 11.72V18.6723L11.7305 18.9992C11.7305 18.9992 11.7305 19.8386 10.5611 19.8386L7.33724 20.0255C7.24358 19.8386 7.33724 19.3724 7.66424 19.279L8.50552 19.046V9.85382L7.33743 9.76028C7.24378 9.33992 7.47708 8.73385 8.13181 8.6868L11.5903 8.45385L16.3573 15.733V9.29363L15.1419 9.15423C15.0486 8.64034 15.4219 8.26719 15.8893 8.22092L19.1149 8.0333Z" fill="black"/>
</svg>
