<svg width="24" height="24" viewBox="0 0 24 24" fill="none" xmlns="http://www.w3.org/2000/svg">
<path d="M5.0423 15.1665C5.0423 16.5541 3.90876 17.6876 2.52115 17.6876C1.13354 17.6876 0 16.5541 0 15.1665C0 13.7789 1.13354 12.6453 2.52115 12.6453H5.0423V15.1665Z" fill="#E01E5A"/>
<path d="M6.31274 15.1665C6.31274 13.7789 7.44628 12.6453 8.83389 12.6453C10.2215 12.6453 11.355 13.7789 11.355 15.1665V21.4791C11.355 22.8667 10.2215 24.0003 8.83389 24.0003C7.44628 24.0003 6.31274 22.8667 6.31274 21.4791V15.1665Z" fill="#E01E5A"/>
<path d="M8.83389 5.0423C7.44628 5.0423 6.31274 3.90876 6.31274 2.52115C6.31274 1.13354 7.44628 0 8.83389 0C10.2215 0 11.355 1.13354 11.355 2.52115V5.0423H8.83389Z" fill="#36C5F0"/>
<path d="M8.8338 6.31018C10.2214 6.31018 11.3549 7.44372 11.3549 8.83133C11.3549 10.2189 10.2214 11.3525 8.8338 11.3525H2.52115C1.13354 11.3525 0 10.2189 0 8.83133C0 7.44372 1.13354 6.31018 2.52115 6.31018H8.8338Z" fill="#36C5F0"/>
<path d="M18.9573 8.83133C18.9573 7.44372 20.0908 6.31018 21.4785 6.31018C22.8661 6.31018 23.9996 7.44372 23.9996 8.83133C23.9996 10.2189 22.8661 11.3525 21.4785 11.3525H18.9573V8.83133Z" fill="#2EB67D"/>
<path d="M17.6873 8.8338C17.6873 10.2214 16.5537 11.3549 15.1661 11.3549C13.7785 11.3549 12.645 10.2214 12.645 8.8338V2.52115C12.645 1.13354 13.7785 0 15.1661 0C16.5537 0 17.6873 1.13354 17.6873 2.52115V8.8338Z" fill="#2EB67D"/>
<path d="M15.1661 18.9564C16.5537 18.9564 17.6873 20.0899 17.6873 21.4775C17.6873 22.8651 16.5537 23.9987 15.1661 23.9987C13.7785 23.9987 12.645 22.8651 12.645 21.4775V18.9564H15.1661Z" fill="#ECB22E"/>
<path d="M15.1661 17.6876C13.7785 17.6876 12.645 16.5541 12.645 15.1665C12.645 13.7789 13.7785 12.6453 15.1661 12.6453H21.4788C22.8664 12.6453 23.9999 13.7789 23.9999 15.1665C23.9999 16.5541 22.8664 17.6876 21.4788 17.6876H15.1661Z" fill="#ECB22E"/>
</svg>
