<svg width="24" height="24" viewBox="0 0 24 24" fill="none" xmlns="http://www.w3.org/2000/svg">
<g clip-path="url(#clip0)">
<path d="M0.850684 18.1903C0.602468 18.6047 0.323697 19.0855 0.0869335 19.4686C-0.0149386 19.6448 -0.0452056 19.8549 0.00263752 20.0537C0.0504807 20.2525 0.172615 20.4242 0.342791 20.5318L5.3072 23.6591C5.39344 23.7136 5.48944 23.75 5.5896 23.7661C5.68976 23.7823 5.79204 23.7779 5.89052 23.7531C5.98896 23.7284 6.08164 23.6838 6.16308 23.622C6.24456 23.5602 6.3132 23.4825 6.36496 23.3933C6.56356 23.0532 6.8194 22.6115 7.0982 22.1385C9.06484 18.8158 11.043 19.2223 14.6097 20.9657L19.5321 23.362C19.6244 23.407 19.7245 23.4325 19.8266 23.4371C19.9287 23.4417 20.0306 23.4253 20.1264 23.3889C20.2222 23.3524 20.3099 23.2967 20.3842 23.2249C20.4586 23.1531 20.5181 23.0668 20.5593 22.9711L22.9231 17.4984C23.0034 17.3105 23.0084 17.0979 22.9369 16.9063C22.8655 16.7148 22.7234 16.5596 22.5412 16.4742C21.5026 15.9739 19.4366 14.9771 17.5769 14.0584C10.8864 10.7318 5.20024 10.9468 0.850684 18.1903Z" fill="url(#paint0_linear)"/>
<path d="M23.1103 5.77108C23.3585 5.35671 23.6373 4.87592 23.8741 4.49283C23.976 4.31661 24.0062 4.10651 23.9584 3.90768C23.9105 3.70885 23.7884 3.53718 23.6182 3.42956L18.6538 0.302312C18.5669 0.242391 18.4689 0.201417 18.3658 0.181941C18.2628 0.162465 18.1569 0.164902 18.0548 0.189102C17.9528 0.213302 17.8566 0.258745 17.7724 0.322607C17.6883 0.386468 17.6178 0.467382 17.5655 0.560309C17.3669 0.900397 17.111 1.34212 16.8323 1.81512C14.8656 5.1378 12.8875 4.73129 9.32075 2.98784L4.41363 0.603309C4.32139 0.55835 4.22123 0.532804 4.11911 0.528189C4.01703 0.52357 3.91507 0.539972 3.81929 0.576421C3.72349 0.612873 3.63583 0.668632 3.56147 0.7404C3.48711 0.812164 3.42758 0.898474 3.38641 0.994214L1.02259 6.46689C0.942318 6.65476 0.937366 6.86741 1.00879 7.05898C1.08023 7.25055 1.22233 7.40572 1.40447 7.49106C2.44317 7.99144 4.50911 8.98823 6.36887 9.90688C13.0746 13.2296 18.7608 13.0067 23.1103 5.77108Z" fill="url(#paint1_linear)"/>
</g>
<defs>
<linearGradient id="paint0_linear" x1="22.7895" y1="25.2735" x2="7.59809" y2="16.7458" gradientUnits="userSpaceOnUse">
<stop offset="0.18" stop-color="#0052CC"/>
<stop offset="1" stop-color="#2684FF"/>
</linearGradient>
<linearGradient id="paint1_linear" x1="-6333.56" y1="18441.7" x2="-5799.72" y2="19040.2" gradientUnits="userSpaceOnUse">
<stop offset="0.18" stop-color="#0052CC"/>
<stop offset="1" stop-color="#2684FF"/>
</linearGradient>
<clipPath id="clip0">
<rect width="24" height="24" fill="white"/>
</clipPath>
</defs>
</svg>
